# xmcd CD database file
#
# Track frame offsets:
#	150
#	10247
#	31022
#	47597
#	66947
#	89147
#	114417
#	130392
#	150942
#	168342
#	184542
#	202995
#	227742
#
# Disc length: 3262 seconds
#
# Revision: 0
# Processed by: cddbd v1.5.2PL0 Copyright (c) Steve Scherf et al.
# Submitted via: CDex 1.70beta2
#
DISCID=9e0cbc0d
DTITLE=Kim Kalesti ・ Marion Cowings - Kim And Marion  
DYEAR=1990
DGENRE=Jazz
TTITLE0=Strike Up The Band
TTITLE1=Samba De Amor
TTITLE2=Bebopper
TTITLE3=Autobiographical Mood [Quintessence]
TTITLE4=If I Were A Bell
TTITLE5=For Ceora
TTITLE6=Oleo
TTITLE7=You And The Night And The Music
TTITLE8=This Is Always
TTITLE9=Katherine The Great
TTITLE10=Beans Talk [Fee Fi Fo Fum]
TTITLE11=The First Time I Heard Ella, The First Time I Heard Elllington
TTITLE12=The Way You Look Tonight
EXTD=YEAR: 1990
EXTT0=
EXTT1=
EXTT2=
EXTT3=
EXTT4=
EXTT5=
EXTT6=
EXTT7=
EXTT8=
EXTT9=
EXTT10=
EXTT11=
EXTT12=
PLAYORDER=
